PathFileType	4	(X/Y/Z)	/Users/visionmauri/Downloads/Videos/OAW10-top_Sports2D/OAW10-top_Sports2D_px_person00.trc
DataRate	CameraRate	NumFrames	NumMarkers	Units	OrigDataRate	OrigDataStartFrame	OrigNumFrames
25.0	25.0	7	22	m	25.0	438	1754
Frame#	Time	Hip			RHip			RKnee			RAnkle			RBigToe			RSmallToe			RHeel			LHip			LKnee			LAnkle			LBigToe			LSmallToe			LHeel			Neck			Head			Nose			RShoulder			RElbow			RWrist			LShoulder			LElbow			LWrist			
		X1	Y1	Z1	X2	Y2	Z2	X3	Y3	Z3	X4	Y4	Z4	X5	Y5	Z5	X6	Y6	Z6	X7	Y7	Z7	X8	Y8	Z8	X9	Y9	Z9	X10	Y10	Z10	X11	Y11	Z11	X12	Y12	Z12	X13	Y13	Z13	X14	Y14	Z14	X15	Y15	Z15	X16	Y16	Z16	X17	Y17	Z17	X18	Y18	Z18	X19	Y19	Z19	X20	Y20	Z20	X21	Y21	Z21	X22	Y22	Z22
438	17.529994295493438	511.34335952793674	829.9883798952698	0.0	473.78915694895375	836.3251446744644	0.0	475.1219143275613	982.2372944922558	0.0	461.2338123131322	1152.8642885079923	0.0	463.15184702439984	1204.4534156872683	0.0	439.981970214412	1201.1645444944447	0.0	464.5443232624356	1173.0949509063048	0.0	551.5052700874455	834.2097530243152	0.0	535.0689390514246	958.0819274343494	0.0	537.1830977704633	1061.8509780416873	0.0	524.39205156723	1106.6341049725297	0.0	548.5429119247693	1102.6003883805529	0.0	535.958251237352	1070.8198755047406	0.0	507.63917176621544	613.2444601075711	0.0	502.27722298187496	502.07927361559854	0.0	498.0478148815514	588.7796983124671	0.0	427.5780935313495	634.2471161804365	0.0	420.76173920739956	738.264142509569	0.0	430.24303815137887	828.5033931476842	0.0	583.7036612141443	628.9690312074155	0.0	627.6569291118589	731.6950932343341	0.0	643.255401636041	827.4963471173434	0.0
439	17.57001711351968	506.7108102117849	838.4928667083626	0.0	470.0100478881269	844.0684448025562	0.0	473.75611836164524	991.1610046312805	0.0	460.97170819000183	1164.4604044312719	0.0	462.11146300524445	1222.6081084813093	0.0	439.118547804274	1218.7436153482083	0.0	464.7880444650585	1184.8144506965061	0.0	547.3766825369489	841.7454132834931	0.0	531.0973659561956	966.4575105449265	0.0	538.3075430215583	1063.5089375403525	0.0	524.2744165705834	1111.6711741425947	0.0	548.6987589741818	1103.8774545182991	0.0	536.6145473707182	1068.6005768791558	0.0	503.75098036331224	618.6639327704813	0.0	496.0446416779121	506.8868854050917	0.0	492.8271920459811	592.4355157570419	0.0	423.648376439698	639.248030177812	0.0	416.07992467557176	745.8281664374301	0.0	423.3571558050128	835.4290941174995	0.0	579.7831833146823	634.2300442514183	0.0	625.1030781635584	739.6088142621253	0.0	641.0099607247117	837.5255693807304	0.0
440	17.61003993154592	501.9430541811161	845.335989111905	0.0	465.4518404603241	849.4759476416854	0.0	470.74471823386494	999.1669890744804	0.0	460.66587127069783	1173.206628638843	0.0	461.20086782891315	1236.8579628297468	0.0	438.22266551738977	1232.4054475292155	0.0	465.21533406914966	1193.1397517148403	0.0	543.3226889247793	847.0830769295264	0.0	527.2670860257653	974.1298771710747	0.0	538.1020081792682	1063.502738918036	0.0	524.3169070502714	1115.868985910343	0.0	549.264417467747	1103.6908151444286	0.0	537.030562334976	1064.6726494837328	0.0	500.0932372914968	625.5248344426398	0.0	488.4745084504249	511.0795666113298	0.0	486.169223291226	600.6210942693142	0.0	418.8188697344725	644.1278650288679	0.0	410.4555675637942	754.4664714436245	0.0	416.0449667748511	845.5049096653263	0.0	577.0277523709243	639.9887813495143	0.0	622.6987965849205	748.8814449929034	0.0	637.7440672429193	849.2492757871044	0.0
441	17.65006274957216	497.0295630661631	851.1101175511773	0.0	459.8377757512889	854.5356457716648	0.0	466.63111364301744	1006.6504003669843	0.0	459.6785262102106	1179.3453414513483	0.0	461.1794530202557	1243.2072574785454	0.0	438.02287859044515	1238.8096099599304	0.0	464.44225537613215	1198.8406708042405	0.0	539.0187422140419	852.818996006461	0.0	524.1844368832856	982.8764228869096	0.0	535.6570599873781	1060.301534185642	0.0	523.7037789489306	1114.1213965007023	0.0	549.3361168834003	1100.0812211838168	0.0	536.3216543526436	1058.9456736417876	0.0	497.717870408608	630.6299686949559	0.0	485.1154232812223	514.9117870226468	0.0	481.9185483426958	610.0979383195657	0.0	414.30879150242885	648.3721821429214	0.0	403.7462582323237	759.6112054108859	0.0	406.9564892128316	854.2487606818389	0.0	576.8485402931478	645.4865028561896	0.0	620.8514392274415	759.3237342820422	0.0	632.9850330009926	862.5152512450725	0.0
442	17.690085567598402	492.42004424534406	855.7437466975382	0.0	453.4020289462483	858.2361843175806	0.0	462.3072312863785	1013.4587294723253	0.0	458.7436949585319	1183.0978842334937	0.0	461.6521330539158	1245.0199210826702	0.0	438.3533086397798	1240.0093177864615	0.0	463.3100476387442	1203.7298927829872	0.0	534.7647481602078	857.7564077017491	0.0	521.675922647525	995.0631893632208	0.0	531.2294303901475	1058.6030756807552	0.0	522.8504487538498	1114.6307388641233	0.0	547.4492853176552	1100.367545602512	0.0	532.1609727082513	1057.3704269151563	0.0	496.07458656167404	634.2555751112811	0.0	485.4170859474032	516.2096116343558	0.0	481.1636621318466	616.3447797149121	0.0	409.8029397441473	651.0363632955493	0.0	395.55152462483744	764.0012932697332	0.0	395.6950906304552	862.9804046421581	0.0	577.7134290429249	649.3406073628865	0.0	618.8457761916168	769.3666623281043	0.0	627.6028814445098	876.2305760777995	0.0
443	17.730108385624643	489.25525187130876	858.2403899856256	0.0	447.9635223211563	859.0367034505789	0.0	458.8389229635191	1019.9313830057664	0.0	458.6283058215092	1184.525294230577	0.0	461.88026468046036	1247.351065651623	0.0	438.575581066628	1240.1442550105007	0.0	462.54185792618256	1208.0547792075954	0.0	531.7168105410732	859.1986939625145	0.0	520.0232578089381	1007.7695165628328	0.0	525.8537504067763	1068.0433697737499	0.0	521.1733217969697	1130.7433185418297	0.0	543.024431700556	1116.1431032782673	0.0	524.1680236353096	1068.7527108974332	0.0	493.51979302665035	636.9734994548082	0.0	485.90650960614624	513.8967274151071	0.0	481.7374286926778	619.2480607714562	0.0	404.8711251095352	651.3211367895212	0.0	386.7610613716608	770.5045266202056	0.0	383.4881579088315	874.7926306750176	0.0	577.7066238538924	650.6569231065546	0.0	615.8659489894808	776.6434906685535	0.0	622.9665769439914	887.3191462278762	0.0
444	17.770131203650884	488.13456203039954	860.2823185855401	0.0	445.9109489136022	860.832438291487	0.0	457.7205775951371	1026.0289608388143	0.0	459.05240065794146	1184.5217587690613	0.0	461.9694452000908	1250.1976527224454	0.0	438.59843647113837	1240.900940398765	0.0	461.8093698669373	1209.4033286539297	0.0	530.0556750508036	860.3671467672236	0.0	520.1113882322295	1017.7872184846856	0.0	520.3465172083638	1091.2363021965139	0.0	518.1511515407121	1163.1397234897795	0.0	537.9060765868886	1148.4937186717596	0.0	515.0605790121296	1096.1208048971191	0.0	489.9221270276367	637.0498341585264	0.0	486.69147999869125	510.4896986760864	0.0	482.3273214566681	619.5719169681748	0.0	400.7529679893205	650.3269726572729	0.0	378.4114066179539	776.049409825108	0.0	372.0199561077117	887.6731520391128	0.0	577.2520658191237	651.0260964499272	0.0	612.4201229702526	781.1309974962046	0.0	619.4057010547691	893.7149748060997	0.0
